<?xml version="1.0" encoding="UTF-8" standalone="no"?><svg xmlns="http://www.w3.org/2000/svg" xmlns:xlink="http://www.w3.org/1999/xlink" clip-rule="evenodd" stroke-miterlimit="4.00" viewBox="0 0 1024 768"><desc>SVG generated by Keynote</desc><defs></defs><g transform="matrix(1.00, 0.00, -0.00, -1.00, 0.0, 768.0)"><path d="M 0.0 768.0 L 1024.0 768.0 L 1024.0 0.0 L 0.0 0.0 Z M 0.0 768.0 " fill="#FEFFFF"></path><text xml:space="preserve" font-family="Helvetica-Light" font-size="80.0" fill="#000000" transform="matrix(1.00, 0.00, -0.00, -1.00, 307.0, 618.0)">Q</text><text xml:space="preserve" font-family="Helvetica-Light" font-size="80.0" fill="#000000" transform="matrix(1.00, 0.00, -0.00, -1.00, 369.2, 618.0)">u</text><text xml:space="preserve" font-family="Helvetica-Light" font-size="80.0" fill="#000000" transform="matrix(1.00, 0.00, -0.00, -1.00, 413.7, 618.0)">e</text><text xml:space="preserve" font-family="Helvetica-Light" font-size="80.0" fill="#000000" transform="matrix(1.00, 0.00, -0.00, -1.00, 458.2, 618.0)">m</text><text xml:space="preserve" font-family="Helvetica-Light" font-size="80.0" fill="#000000" transform="matrix(1.00, 0.00, -0.00, -1.00, 524.8, 618.0)"> </text><text xml:space="preserve" font-family="Helvetica-Light" font-size="80.0" fill="#000000" transform="matrix(1.00, 0.00, -0.00, -1.00, 547.1, 618.0)">s</text><text xml:space="preserve" font-family="Helvetica-Light" font-size="80.0" fill="#000000" transform="matrix(1.00, 0.00, -0.00, -1.00, 587.1, 618.0)">o</text><text xml:space="preserve" font-family="Helvetica-Light" font-size="80.0" fill="#000000" transform="matrix(1.00, 0.00, -0.00, -1.00, 631.6, 618.0)">u</text><text xml:space="preserve" font-family="Helvetica-Light" font-size="80.0" fill="#000000" transform="matrix(1.00, 0.00, -0.00, -1.00, 676.0, 618.0)">?</text><text xml:space="preserve" font-family="Helvetica-Light" font-size="26.5" fill="#000000" transform="matrix(1.00, 0.00, -0.00, -1.00, 79.0, 429.9)">•</text><text xml:space="preserve" font-family="Helvetica-Light" font-size="35.3" fill="#000000" transform="matrix(1.00, 0.00, -0.00, -1.00, 113.0, 426.0)">o</text><text xml:space="preserve" font-family="Helvetica-Light" font-size="35.3" fill="#000000" transform="matrix(1.00, 0.00, -0.00, -1.00, 132.6, 426.0)">p</text><text xml:space="preserve" font-family="Helvetica-Light" font-size="35.3" fill="#000000" transform="matrix(1.00, 0.00, -0.00, -1.00, 154.2, 426.0)">e</text><text xml:space="preserve" font-family="Helvetica-Light" font-size="35.3" fill="#000000" transform="matrix(1.00, 0.00, -0.00, -1.00, 173.8, 426.0)">n</text><text xml:space="preserve" font-family="Helvetica-Light" font-size="35.3" fill="#000000" transform="matrix(1.00, 0.00, -0.00, -1.00, 193.4, 426.0)">b</text><text xml:space="preserve" font-family="Helvetica-Light" font-size="35.3" fill="#000000" transform="matrix(1.00, 0.00, -0.00, -1.00, 215.0, 426.0)">s</text><text xml:space="preserve" font-family="Helvetica-Light" font-size="35.3" fill="#000000" transform="matrix(1.00, 0.00, -0.00, -1.00, 232.6, 426.0)">d</text><text xml:space="preserve" font-family="Helvetica-Light" font-size="35.3" fill="#000000" transform="matrix(1.00, 0.00, -0.00, -1.00, 254.2, 426.0)">-</text><text xml:space="preserve" font-family="Helvetica-Light" font-size="35.3" fill="#000000" transform="matrix(1.00, 0.00, -0.00, -1.00, 265.9, 426.0)">b</text><text xml:space="preserve" font-family="Helvetica-Light" font-size="35.3" fill="#000000" transform="matrix(1.00, 0.00, -0.00, -1.00, 287.5, 426.0)">r</text><text xml:space="preserve" font-family="Helvetica-Light" font-size="35.3" fill="#000000" transform="matrix(1.00, 0.00, -0.00, -1.00, 299.2, 426.0)"> </text><text xml:space="preserve" font-family="Helvetica-Light" font-size="26.5" fill="#000000" transform="matrix(1.00, 0.00, -0.00, -1.00, 79.0, 346.8)">•</text><text xml:space="preserve" font-family="Helvetica-Light" font-size="35.3" fill="#000000" transform="matrix(1.00, 0.00, -0.00, -1.00, 113.0, 343.0)">l</text><text xml:space="preserve" font-family="Helvetica-Light" font-size="35.3" fill="#000000" transform="matrix(1.00, 0.00, -0.00, -1.00, 120.8, 343.0)">a</text><text xml:space="preserve" font-family="Helvetica-Light" font-size="35.3" fill="#000000" transform="matrix(1.00, 0.00, -0.00, -1.00, 140.4, 343.0)">b</text><text xml:space="preserve" font-family="Helvetica-Light" font-size="35.3" fill="#000000" transform="matrix(1.00, 0.00, -0.00, -1.00, 162.0, 343.0)">8</text><text xml:space="preserve" font-family="Helvetica-Light" font-size="35.3" fill="#000000" transform="matrix(1.00, 0.00, -0.00, -1.00, 181.6, 343.0)">0</text><text xml:space="preserve" font-family="Helvetica-Light" font-size="35.3" fill="#000000" transform="matrix(1.00, 0.00, -0.00, -1.00, 201.2, 343.0)">4</text><text xml:space="preserve" font-family="Helvetica-Light" font-size="35.3" fill="#000000" transform="matrix(1.00, 0.00, -0.00, -1.00, 220.9, 343.0)"> </text><text xml:space="preserve" font-family="Helvetica-Light" font-size="26.5" fill="#000000" transform="matrix(1.00, 0.00, -0.00, -1.00, 79.0, 263.6)">•</text><text xml:space="preserve" font-family="Helvetica-Light" font-size="35.3" fill="#000000" transform="matrix(1.00, 0.00, -0.00, -1.00, 113.0, 260.0)">F</text><text xml:space="preserve" font-family="Helvetica-Light" font-size="35.3" fill="#000000" transform="matrix(1.00, 0.00, -0.00, -1.00, 132.6, 260.0)">r</text><text xml:space="preserve" font-family="Helvetica-Light" font-size="35.3" fill="#000000" transform="matrix(1.00, 0.00, -0.00, -1.00, 143.7, 260.0)">e</text><text xml:space="preserve" font-family="Helvetica-Light" font-size="35.3" fill="#000000" transform="matrix(1.00, 0.00, -0.00, -1.00, 163.3, 260.0)">e</text><text xml:space="preserve" font-family="Helvetica-Light" font-size="35.3" fill="#000000" transform="matrix(1.00, 0.00, -0.00, -1.00, 183.0, 260.0)">n</text><text xml:space="preserve" font-family="Helvetica-Light" font-size="35.3" fill="#000000" transform="matrix(1.00, 0.00, -0.00, -1.00, 202.6, 260.0)">o</text><text xml:space="preserve" font-family="Helvetica-Light" font-size="35.3" fill="#000000" transform="matrix(1.00, 0.00, -0.00, -1.00, 222.2, 260.0)">d</text><text xml:space="preserve" font-family="Helvetica-Light" font-size="35.3" fill="#000000" transform="matrix(1.00, 0.00, -0.00, -1.00, 243.7, 260.0)">e</text><text xml:space="preserve" font-family="Helvetica-Light" font-size="35.3" fill="#000000" transform="matrix(1.00, 0.00, -0.00, -1.00, 263.4, 260.0)">:</text><text xml:space="preserve" font-family="Helvetica-Light" font-size="35.3" fill="#000000" transform="matrix(1.00, 0.00, -0.00, -1.00, 273.2, 260.0)"> </text><text xml:space="preserve" font-family="Helvetica-Light" font-size="35.3" fill="#000000" transform="matrix(1.00, 0.00, -0.00, -1.00, 283.0, 260.0)">#</text><text xml:space="preserve" font-family="Helvetica-Light" font-size="35.3" fill="#000000" transform="matrix(1.00, 0.00, -0.00, -1.00, 302.6, 260.0)">g</text><text xml:space="preserve" font-family="Helvetica-Light" font-size="35.3" fill="#000000" transform="matrix(1.00, 0.00, -0.00, -1.00, 324.2, 260.0)">e</text><text xml:space="preserve" font-family="Helvetica-Light" font-size="35.3" fill="#000000" transform="matrix(1.00, 0.00, -0.00, -1.00, 343.8, 260.0)">e</text><text xml:space="preserve" font-family="Helvetica-Light" font-size="35.3" fill="#000000" transform="matrix(1.00, 0.00, -0.00, -1.00, 363.4, 260.0)">k</text><text xml:space="preserve" font-family="Helvetica-Light" font-size="35.3" fill="#000000" transform="matrix(1.00, 0.00, -0.00, -1.00, 381.0, 260.0)">_</text><text xml:space="preserve" font-family="Helvetica-Light" font-size="35.3" fill="#000000" transform="matrix(1.00, 0.00, -0.00, -1.00, 398.7, 260.0)">r</text><text xml:space="preserve" font-family="Helvetica-Light" font-size="35.3" fill="#000000" transform="matrix(1.00, 0.00, -0.00, -1.00, 409.8, 260.0)">e</text><text xml:space="preserve" font-family="Helvetica-Light" font-size="35.3" fill="#000000" transform="matrix(1.00, 0.00, -0.00, -1.00, 429.4, 260.0)">p</text><text xml:space="preserve" font-family="Helvetica-Light" font-size="35.3" fill="#000000" transform="matrix(1.00, 0.00, -0.00, -1.00, 450.9, 260.0)">u</text><text xml:space="preserve" font-family="Helvetica-Light" font-size="35.3" fill="#000000" transform="matrix(1.00, 0.00, -0.00, -1.00, 470.6, 260.0)">b</text><text xml:space="preserve" font-family="Helvetica-Light" font-size="35.3" fill="#000000" transform="matrix(1.00, 0.00, -0.00, -1.00, 492.1, 260.0)">l</text><text xml:space="preserve" font-family="Helvetica-Light" font-size="35.3" fill="#000000" transform="matrix(1.00, 0.00, -0.00, -1.00, 500.0, 260.0)">i</text><text xml:space="preserve" font-family="Helvetica-Light" font-size="35.3" fill="#000000" transform="matrix(1.00, 0.00, -0.00, -1.00, 507.8, 260.0)">c</text><text xml:space="preserve" font-family="Helvetica-Light" font-size="35.3" fill="#000000" transform="matrix(1.00, 0.00, -0.00, -1.00, 527.4, 260.0)">,</text><text xml:space="preserve" font-family="Helvetica-Light" font-size="35.3" fill="#000000" transform="matrix(1.00, 0.00, -0.00, -1.00, 537.2, 260.0)"> </text><text xml:space="preserve" font-family="Helvetica-Light" font-size="35.3" fill="#000000" transform="matrix(1.00, 0.00, -0.00, -1.00, 547.0, 260.0)">#</text><text xml:space="preserve" font-family="Helvetica-Light" font-size="35.3" fill="#000000" transform="matrix(1.00, 0.00, -0.00, -1.00, 566.6, 260.0)">o</text><text xml:space="preserve" font-family="Helvetica-Light" font-size="35.3" fill="#000000" transform="matrix(1.00, 0.00, -0.00, -1.00, 586.2, 260.0)">p</text><text xml:space="preserve" font-family="Helvetica-Light" font-size="35.3" fill="#000000" transform="matrix(1.00, 0.00, -0.00, -1.00, 607.8, 260.0)">e</text><text xml:space="preserve" font-family="Helvetica-Light" font-size="35.3" fill="#000000" transform="matrix(1.00, 0.00, -0.00, -1.00, 627.4, 260.0)">n</text><text xml:space="preserve" font-family="Helvetica-Light" font-size="35.3" fill="#000000" transform="matrix(1.00, 0.00, -0.00, -1.00, 647.0, 260.0)">b</text><text xml:space="preserve" font-family="Helvetica-Light" font-size="35.3" fill="#000000" transform="matrix(1.00, 0.00, -0.00, -1.00, 668.6, 260.0)">s</text><text xml:space="preserve" font-family="Helvetica-Light" font-size="35.3" fill="#000000" transform="matrix(1.00, 0.00, -0.00, -1.00, 686.2, 260.0)">d</text><text xml:space="preserve" font-family="Helvetica-Light" font-size="35.3" fill="#000000" transform="matrix(1.00, 0.00, -0.00, -1.00, 707.8, 260.0)">-</text><text xml:space="preserve" font-family="Helvetica-Light" font-size="35.3" fill="#000000" transform="matrix(1.00, 0.00, -0.00, -1.00, 719.5, 260.0)">b</text><text xml:space="preserve" font-family="Helvetica-Light" font-size="35.3" fill="#000000" transform="matrix(1.00, 0.00, -0.00, -1.00, 741.1, 260.0)">r</text><text xml:space="preserve" font-family="Helvetica-Light" font-size="35.3" fill="#000000" transform="matrix(1.00, 0.00, -0.00, -1.00, 749.6, 260.0)">,</text><text xml:space="preserve" font-family="Helvetica-Light" font-size="35.3" fill="#000000" transform="matrix(1.00, 0.00, -0.00, -1.00, 759.4, 260.0)"> </text><text xml:space="preserve" font-family="Helvetica-Light" font-size="35.3" fill="#000000" transform="matrix(1.00, 0.00, -0.00, -1.00, 769.2, 260.0)">#</text><text xml:space="preserve" font-family="Helvetica-Light" font-size="35.3" fill="#000000" transform="matrix(1.00, 0.00, -0.00, -1.00, 788.8, 260.0)">p</text><text xml:space="preserve" font-family="Helvetica-Light" font-size="35.3" fill="#000000" transform="matrix(1.00, 0.00, -0.00, -1.00, 810.4, 260.0)">y</text><text xml:space="preserve" font-family="Helvetica-Light" font-size="35.3" fill="#000000" transform="matrix(1.00, 0.00, -0.00, -1.00, 828.0, 260.0)">t</text><text xml:space="preserve" font-family="Helvetica-Light" font-size="35.3" fill="#000000" transform="matrix(1.00, 0.00, -0.00, -1.00, 837.8, 260.0)">h</text><text xml:space="preserve" font-family="Helvetica-Light" font-size="35.3" fill="#000000" transform="matrix(1.00, 0.00, -0.00, -1.00, 857.4, 260.0)">o</text><text xml:space="preserve" font-family="Helvetica-Light" font-size="35.3" fill="#000000" transform="matrix(1.00, 0.00, -0.00, -1.00, 877.1, 260.0)">n</text><text xml:space="preserve" font-family="Helvetica-Light" font-size="35.3" fill="#000000" transform="matrix(1.00, 0.00, -0.00, -1.00, 896.7, 260.0)">-</text><text xml:space="preserve" font-family="Helvetica-Light" font-size="35.3" fill="#000000" transform="matrix(1.00, 0.00, -0.00, -1.00, 908.4, 260.0)">b</text><text xml:space="preserve" font-family="Helvetica-Light" font-size="35.3" fill="#000000" transform="matrix(1.00, 0.00, -0.00, -1.00, 930.0, 260.0)">r</text><text xml:space="preserve" font-family="Helvetica-Light" font-size="35.3" fill="#000000" transform="matrix(1.00, 0.00, -0.00, -1.00, 941.7, 260.0)"> </text><text xml:space="preserve" font-family="Helvetica-Light" font-size="26.5" fill="#000000" transform="matrix(1.00, 0.00, -0.00, -1.00, 79.0, 180.4)">•</text><text xml:space="preserve" font-family="Helvetica-Light" font-size="35.3" fill="#000000" transform="matrix(1.00, 0.00, -0.00, -1.00, 113.0, 177.0)">T</text><text xml:space="preserve" font-family="Helvetica-Light" font-size="35.3" fill="#000000" transform="matrix(1.00, 0.00, -0.00, -1.00, 129.7, 177.0)">w</text><text xml:space="preserve" font-family="Helvetica-Light" font-size="35.3" fill="#000000" transform="matrix(1.00, 0.00, -0.00, -1.00, 155.1, 177.0)">i</text><text xml:space="preserve" font-family="Helvetica-Light" font-size="35.3" fill="#000000" transform="matrix(1.00, 0.00, -0.00, -1.00, 163.0, 177.0)">t</text><text xml:space="preserve" font-family="Helvetica-Light" font-size="35.3" fill="#000000" transform="matrix(1.00, 0.00, -0.00, -1.00, 172.8, 177.0)">t</text><text xml:space="preserve" font-family="Helvetica-Light" font-size="35.3" fill="#000000" transform="matrix(1.00, 0.00, -0.00, -1.00, 182.6, 177.0)">e</text><text xml:space="preserve" font-family="Helvetica-Light" font-size="35.3" fill="#000000" transform="matrix(1.00, 0.00, -0.00, -1.00, 202.2, 177.0)">r</text><text xml:space="preserve" font-family="Helvetica-Light" font-size="35.3" fill="#000000" transform="matrix(1.00, 0.00, -0.00, -1.00, 213.9, 177.0)">:</text><text xml:space="preserve" font-family="Helvetica-Light" font-size="35.3" fill="#000000" transform="matrix(1.00, 0.00, -0.00, -1.00, 223.7, 177.0)"> </text><text xml:space="preserve" font-family="Helvetica-Light" font-size="35.3" fill="#000000" transform="matrix(1.00, 0.00, -0.00, -1.00, 233.6, 177.0)">@</text><text xml:space="preserve" font-family="Helvetica-Light" font-size="35.3" fill="#000000" transform="matrix(1.00, 0.00, -0.00, -1.00, 261.8, 177.0)">m</text><text xml:space="preserve" font-family="Helvetica-Light" font-size="35.3" fill="#000000" transform="matrix(1.00, 0.00, -0.00, -1.00, 291.2, 177.0)">u</text><text xml:space="preserve" font-family="Helvetica-Light" font-size="35.3" fill="#000000" transform="matrix(1.00, 0.00, -0.00, -1.00, 310.8, 177.0)">r</text><text xml:space="preserve" font-family="Helvetica-Light" font-size="35.3" fill="#000000" transform="matrix(1.00, 0.00, -0.00, -1.00, 322.5, 177.0)">i</text><text xml:space="preserve" font-family="Helvetica-Light" font-size="35.3" fill="#000000" transform="matrix(1.00, 0.00, -0.00, -1.00, 330.4, 177.0)">l</text><text xml:space="preserve" font-family="Helvetica-Light" font-size="35.3" fill="#000000" transform="matrix(1.00, 0.00, -0.00, -1.00, 338.2, 177.0)">o</text><text xml:space="preserve" font-family="Helvetica-Light" font-size="35.3" fill="#000000" transform="matrix(1.00, 0.00, -0.00, -1.00, 357.8, 177.0)">i</text><text xml:space="preserve" font-family="Helvetica-Light" font-size="35.3" fill="#000000" transform="matrix(1.00, 0.00, -0.00, -1.00, 365.6, 177.0)">j</text><text xml:space="preserve" font-family="Helvetica-Light" font-size="35.3" fill="#000000" transform="matrix(1.00, 0.00, -0.00, -1.00, 373.5, 177.0)">a</text><text xml:space="preserve" font-family="Helvetica-Light" font-size="35.3" fill="#000000" transform="matrix(1.00, 0.00, -0.00, -1.00, 393.1, 177.0)">n</text><text xml:space="preserve" font-family="Helvetica-Light" font-size="35.3" fill="#000000" transform="matrix(1.00, 0.00, -0.00, -1.00, 412.7, 177.0)">c</text><text xml:space="preserve" font-family="Helvetica-Light" font-size="35.3" fill="#000000" transform="matrix(1.00, 0.00, -0.00, -1.00, 432.3, 177.0)"> </text><text xml:space="preserve" font-family="Helvetica-Light" font-size="26.5" fill="#000000" transform="matrix(1.00, 0.00, -0.00, -1.00, 79.0, 97.3)">•</text><text xml:space="preserve" font-family="Helvetica-Light" font-size="35.3" fill="#000000" transform="matrix(1.00, 0.00, -0.00, -1.00, 113.0, 94.0)">h</text><text xml:space="preserve" font-family="Helvetica-Light" font-size="35.3" fill="#000000" transform="matrix(1.00, 0.00, -0.00, -1.00, 132.6, 94.0)">t</text><text xml:space="preserve" font-family="Helvetica-Light" font-size="35.3" fill="#000000" transform="matrix(1.00, 0.00, -0.00, -1.00, 142.4, 94.0)">t</text><text xml:space="preserve" font-family="Helvetica-Light" font-size="35.3" fill="#000000" transform="matrix(1.00, 0.00, -0.00, -1.00, 152.2, 94.0)">p</text><text xml:space="preserve" font-family="Helvetica-Light" font-size="35.3" fill="#000000" transform="matrix(1.00, 0.00, -0.00, -1.00, 173.8, 94.0)">:</text><text xml:space="preserve" font-family="Helvetica-Light" font-size="35.3" fill="#000000" transform="matrix(1.00, 0.00, -0.00, -1.00, 183.6, 94.0)">/</text><text xml:space="preserve" font-family="Helvetica-Light" font-size="35.3" fill="#000000" transform="matrix(1.00, 0.00, -0.00, -1.00, 193.4, 94.0)">/</text><text xml:space="preserve" font-family="Helvetica-Light" font-size="35.3" fill="#000000" transform="matrix(1.00, 0.00, -0.00, -1.00, 203.2, 94.0)">m</text><text xml:space="preserve" font-family="Helvetica-Light" font-size="35.3" fill="#000000" transform="matrix(1.00, 0.00, -0.00, -1.00, 232.6, 94.0)">u</text><text xml:space="preserve" font-family="Helvetica-Light" font-size="35.3" fill="#000000" transform="matrix(1.00, 0.00, -0.00, -1.00, 252.2, 94.0)">r</text><text xml:space="preserve" font-family="Helvetica-Light" font-size="35.3" fill="#000000" transform="matrix(1.00, 0.00, -0.00, -1.00, 264.0, 94.0)">i</text><text xml:space="preserve" font-family="Helvetica-Light" font-size="35.3" fill="#000000" transform="matrix(1.00, 0.00, -0.00, -1.00, 271.8, 94.0)">l</text><text xml:space="preserve" font-family="Helvetica-Light" font-size="35.3" fill="#000000" transform="matrix(1.00, 0.00, -0.00, -1.00, 279.6, 94.0)">o</text><text xml:space="preserve" font-family="Helvetica-Light" font-size="35.3" fill="#000000" transform="matrix(1.00, 0.00, -0.00, -1.00, 299.2, 94.0)">.</text><text xml:space="preserve" font-family="Helvetica-Light" font-size="35.3" fill="#000000" transform="matrix(1.00, 0.00, -0.00, -1.00, 309.1, 94.0)">n</text><text xml:space="preserve" font-family="Helvetica-Light" font-size="35.3" fill="#000000" transform="matrix(1.00, 0.00, -0.00, -1.00, 328.7, 94.0)">e</text><text xml:space="preserve" font-family="Helvetica-Light" font-size="35.3" fill="#000000" transform="matrix(1.00, 0.00, -0.00, -1.00, 348.3, 94.0)">t</text><text xml:space="preserve" font-family="Helvetica-Light" font-size="35.3" fill="#000000" transform="matrix(1.00, 0.00, -0.00, -1.00, 358.1, 94.0)">.</text><text xml:space="preserve" font-family="Helvetica-Light" font-size="35.3" fill="#000000" transform="matrix(1.00, 0.00, -0.00, -1.00, 367.9, 94.0)">b</text><text xml:space="preserve" font-family="Helvetica-Light" font-size="35.3" fill="#000000" transform="matrix(1.00, 0.00, -0.00, -1.00, 389.5, 94.0)">r</text><g><clipPath id="clip-1"><path d="M 112.3 89.3 L 401.5 89.3 L 401.5 93.1 L 112.3 93.1 Z M 112.3 89.3 "></path></clipPath><g clip-path="url(#clip-1)"><path d="M 38.3 471.3 L 326.5 471.3 " fill="none" stroke="#000000" stroke-width="1.76" stroke-miterlimit="0.00" transform="matrix(1.00, 0.00, 0.00, -1.00, 75.0, 562.5)"></path></g></g><image xlink:href="4854155742D6AB717D64539B756771C7.jpeg" width="201.00" height="201.00" transform="matrix(1.00, 0.00, -0.00, -1.00, 776.0, 612.0)"></image></g></svg>