<?xml version="1.0" encoding="UTF-8" standalone="no"?><svg xmlns="http://www.w3.org/2000/svg" xmlns:xlink="http://www.w3.org/1999/xlink" clip-rule="evenodd" stroke-miterlimit="4.00" viewBox="0 0 1024 768"><desc>SVG generated by Keynote</desc><defs></defs><g transform="matrix(1.00, 0.00, -0.00, -1.00, 0.0, 768.0)"><path d="M 0.0 768.0 L 1024.0 768.0 L 1024.0 0.0 L 0.0 0.0 Z M 0.0 768.0 " fill="#FEFFFF"></path><text xml:space="preserve" font-family="Helvetica-Light" font-size="80.0" fill="#000000" transform="matrix(1.00, 0.00, -0.00, -1.00, 241.0, 613.0)">C</text><text xml:space="preserve" font-family="Helvetica-Light" font-size="80.0" fill="#000000" transform="matrix(1.00, 0.00, -0.00, -1.00, 298.8, 613.0)">r</text><text xml:space="preserve" font-family="Helvetica-Light" font-size="80.0" fill="#000000" transform="matrix(1.00, 0.00, -0.00, -1.00, 325.4, 613.0)">a</text><text xml:space="preserve" font-family="Helvetica-Light" font-size="80.0" fill="#000000" transform="matrix(1.00, 0.00, -0.00, -1.00, 369.9, 613.0)">w</text><text xml:space="preserve" font-family="Helvetica-Light" font-size="80.0" fill="#000000" transform="matrix(1.00, 0.00, -0.00, -1.00, 427.6, 613.0)">l</text><text xml:space="preserve" font-family="Helvetica-Light" font-size="80.0" fill="#000000" transform="matrix(1.00, 0.00, -0.00, -1.00, 445.4, 613.0)">e</text><text xml:space="preserve" font-family="Helvetica-Light" font-size="80.0" fill="#000000" transform="matrix(1.00, 0.00, -0.00, -1.00, 489.9, 613.0)">r</text><text xml:space="preserve" font-family="Helvetica-Light" font-size="80.0" fill="#000000" transform="matrix(1.00, 0.00, -0.00, -1.00, 516.5, 613.0)"> </text><text xml:space="preserve" font-family="Helvetica-Light" font-size="80.0" fill="#000000" transform="matrix(1.00, 0.00, -0.00, -1.00, 538.8, 613.0)">P</text><text xml:space="preserve" font-family="Helvetica-Light" font-size="80.0" fill="#000000" transform="matrix(1.00, 0.00, -0.00, -1.00, 587.6, 613.0)">y</text><text xml:space="preserve" font-family="Helvetica-Light" font-size="80.0" fill="#000000" transform="matrix(1.00, 0.00, -0.00, -1.00, 627.6, 613.0)">t</text><text xml:space="preserve" font-family="Helvetica-Light" font-size="80.0" fill="#000000" transform="matrix(1.00, 0.00, -0.00, -1.00, 649.9, 613.0)">h</text><text xml:space="preserve" font-family="Helvetica-Light" font-size="80.0" fill="#000000" transform="matrix(1.00, 0.00, -0.00, -1.00, 694.4, 613.0)">o</text><text xml:space="preserve" font-family="Helvetica-Light" font-size="80.0" fill="#000000" transform="matrix(1.00, 0.00, -0.00, -1.00, 738.8, 613.0)">n</text><text xml:space="preserve" font-family="Helvetica-Light" font-size="22.7" fill="#000000" transform="matrix(1.00, 0.00, -0.00, -1.00, 451.0, 151.0)">M</text><text xml:space="preserve" font-family="Helvetica-Light" font-size="22.7" fill="#000000" transform="matrix(1.00, 0.00, -0.00, -1.00, 469.9, 151.0)">u</text><text xml:space="preserve" font-family="Helvetica-Light" font-size="22.7" fill="#000000" transform="matrix(1.00, 0.00, -0.00, -1.00, 482.6, 151.0)">r</text><text xml:space="preserve" font-family="Helvetica-Light" font-size="22.7" fill="#000000" transform="matrix(1.00, 0.00, -0.00, -1.00, 490.1, 151.0)">i</text><text xml:space="preserve" font-family="Helvetica-Light" font-size="22.7" fill="#000000" transform="matrix(1.00, 0.00, -0.00, -1.00, 495.2, 151.0)">l</text><text xml:space="preserve" font-family="Helvetica-Light" font-size="22.7" fill="#000000" transform="matrix(1.00, 0.00, -0.00, -1.00, 500.2, 151.0)">o</text><text xml:space="preserve" font-family="Helvetica-Light" font-size="22.7" fill="#000000" transform="matrix(1.00, 0.00, -0.00, -1.00, 512.8, 151.0)"> </text><text xml:space="preserve" font-family="Helvetica-Light" font-size="22.7" fill="#000000" transform="matrix(1.00, 0.00, -0.00, -1.00, 519.2, 151.0)">I</text><text xml:space="preserve" font-family="Helvetica-Light" font-size="22.7" fill="#000000" transform="matrix(1.00, 0.00, -0.00, -1.00, 525.5, 151.0)">j</text><text xml:space="preserve" font-family="Helvetica-Light" font-size="22.7" fill="#000000" transform="matrix(1.00, 0.00, -0.00, -1.00, 530.5, 151.0)">a</text><text xml:space="preserve" font-family="Helvetica-Light" font-size="22.7" fill="#000000" transform="matrix(1.00, 0.00, -0.00, -1.00, 543.2, 151.0)">n</text><text xml:space="preserve" font-family="Helvetica-Light" font-size="22.7" fill="#000000" transform="matrix(1.00, 0.00, -0.00, -1.00, 555.8, 151.0)">c</text><text xml:space="preserve" font-family="Helvetica-Light" font-size="22.7" fill="#000000" transform="matrix(1.00, 0.00, -0.00, -1.00, 568.4, 151.0)">’</text><text xml:space="preserve" font-family="Helvetica-Light" font-size="22.7" fill="#000000" transform="matrix(1.00, 0.00, -0.00, -1.00, 573.5, 151.0)"> </text><text xml:space="preserve" font-family="Helvetica-Light" font-size="22.7" fill="#000000" transform="matrix(1.00, 0.00, -0.00, -1.00, 448.0, 125.0)">@</text><text xml:space="preserve" font-family="Helvetica-Light" font-size="22.7" fill="#000000" transform="matrix(1.00, 0.00, -0.00, -1.00, 466.2, 125.0)">m</text><text xml:space="preserve" font-family="Helvetica-Light" font-size="22.7" fill="#000000" transform="matrix(1.00, 0.00, -0.00, -1.00, 485.1, 125.0)">u</text><text xml:space="preserve" font-family="Helvetica-Light" font-size="22.7" fill="#000000" transform="matrix(1.00, 0.00, -0.00, -1.00, 497.7, 125.0)">r</text><text xml:space="preserve" font-family="Helvetica-Light" font-size="22.7" fill="#000000" transform="matrix(1.00, 0.00, -0.00, -1.00, 505.3, 125.0)">i</text><text xml:space="preserve" font-family="Helvetica-Light" font-size="22.7" fill="#000000" transform="matrix(1.00, 0.00, -0.00, -1.00, 510.3, 125.0)">l</text><text xml:space="preserve" font-family="Helvetica-Light" font-size="22.7" fill="#000000" transform="matrix(1.00, 0.00, -0.00, -1.00, 515.4, 125.0)">o</text><text xml:space="preserve" font-family="Helvetica-Light" font-size="22.7" fill="#000000" transform="matrix(1.00, 0.00, -0.00, -1.00, 528.0, 125.0)">i</text><text xml:space="preserve" font-family="Helvetica-Light" font-size="22.7" fill="#000000" transform="matrix(1.00, 0.00, -0.00, -1.00, 533.1, 125.0)">j</text><text xml:space="preserve" font-family="Helvetica-Light" font-size="22.7" fill="#000000" transform="matrix(1.00, 0.00, -0.00, -1.00, 538.1, 125.0)">a</text><text xml:space="preserve" font-family="Helvetica-Light" font-size="22.7" fill="#000000" transform="matrix(1.00, 0.00, -0.00, -1.00, 550.7, 125.0)">n</text><text xml:space="preserve" font-family="Helvetica-Light" font-size="22.7" fill="#000000" transform="matrix(1.00, 0.00, -0.00, -1.00, 563.4, 125.0)">c</text><text xml:space="preserve" font-family="Helvetica-Light" font-size="22.7" fill="#000000" transform="matrix(1.00, 0.00, -0.00, -1.00, 576.0, 125.0)"> </text><text xml:space="preserve" font-family="Helvetica-Light" font-size="22.7" fill="#000000" transform="matrix(1.00, 0.00, -0.00, -1.00, 382.0, 99.0)">h</text><text xml:space="preserve" font-family="Helvetica-Light" font-size="22.7" fill="#000000" transform="matrix(1.00, 0.00, -0.00, -1.00, 394.6, 99.0)">t</text><text xml:space="preserve" font-family="Helvetica-Light" font-size="22.7" fill="#000000" transform="matrix(1.00, 0.00, -0.00, -1.00, 400.9, 99.0)">t</text><text xml:space="preserve" font-family="Helvetica-Light" font-size="22.7" fill="#000000" transform="matrix(1.00, 0.00, -0.00, -1.00, 407.3, 99.0)">p</text><text xml:space="preserve" font-family="Helvetica-Light" font-size="22.7" fill="#000000" transform="matrix(1.00, 0.00, -0.00, -1.00, 421.1, 99.0)">:</text><text xml:space="preserve" font-family="Helvetica-Light" font-size="22.7" fill="#000000" transform="matrix(1.00, 0.00, -0.00, -1.00, 427.5, 99.0)">/</text><text xml:space="preserve" font-family="Helvetica-Light" font-size="22.7" fill="#000000" transform="matrix(1.00, 0.00, -0.00, -1.00, 433.8, 99.0)">/</text><text xml:space="preserve" font-family="Helvetica-Light" font-size="22.7" fill="#000000" transform="matrix(1.00, 0.00, -0.00, -1.00, 440.1, 99.0)">w</text><text xml:space="preserve" font-family="Helvetica-Light" font-size="22.7" fill="#000000" transform="matrix(1.00, 0.00, -0.00, -1.00, 456.5, 99.0)">w</text><text xml:space="preserve" font-family="Helvetica-Light" font-size="22.7" fill="#000000" transform="matrix(1.00, 0.00, -0.00, -1.00, 472.9, 99.0)">w</text><text xml:space="preserve" font-family="Helvetica-Light" font-size="22.7" fill="#000000" transform="matrix(1.00, 0.00, -0.00, -1.00, 488.1, 99.0)">.</text><text xml:space="preserve" font-family="Helvetica-Light" font-size="22.7" fill="#000000" transform="matrix(1.00, 0.00, -0.00, -1.00, 494.4, 99.0)">l</text><text xml:space="preserve" font-family="Helvetica-Light" font-size="22.7" fill="#000000" transform="matrix(1.00, 0.00, -0.00, -1.00, 499.4, 99.0)">a</text><text xml:space="preserve" font-family="Helvetica-Light" font-size="22.7" fill="#000000" transform="matrix(1.00, 0.00, -0.00, -1.00, 512.0, 99.0)">b</text><text xml:space="preserve" font-family="Helvetica-Light" font-size="22.7" fill="#000000" transform="matrix(1.00, 0.00, -0.00, -1.00, 525.9, 99.0)">8</text><text xml:space="preserve" font-family="Helvetica-Light" font-size="22.7" fill="#000000" transform="matrix(1.00, 0.00, -0.00, -1.00, 538.6, 99.0)">0</text><text xml:space="preserve" font-family="Helvetica-Light" font-size="22.7" fill="#000000" transform="matrix(1.00, 0.00, -0.00, -1.00, 551.2, 99.0)">4</text><text xml:space="preserve" font-family="Helvetica-Light" font-size="22.7" fill="#000000" transform="matrix(1.00, 0.00, -0.00, -1.00, 563.8, 99.0)">.</text><text xml:space="preserve" font-family="Helvetica-Light" font-size="22.7" fill="#000000" transform="matrix(1.00, 0.00, -0.00, -1.00, 570.1, 99.0)">c</text><text xml:space="preserve" font-family="Helvetica-Light" font-size="22.7" fill="#000000" transform="matrix(1.00, 0.00, -0.00, -1.00, 582.8, 99.0)">o</text><text xml:space="preserve" font-family="Helvetica-Light" font-size="22.7" fill="#000000" transform="matrix(1.00, 0.00, -0.00, -1.00, 595.4, 99.0)">m</text><text xml:space="preserve" font-family="Helvetica-Light" font-size="22.7" fill="#000000" transform="matrix(1.00, 0.00, -0.00, -1.00, 614.3, 99.0)">.</text><text xml:space="preserve" font-family="Helvetica-Light" font-size="22.7" fill="#000000" transform="matrix(1.00, 0.00, -0.00, -1.00, 620.7, 99.0)">b</text><text xml:space="preserve" font-family="Helvetica-Light" font-size="22.7" fill="#000000" transform="matrix(1.00, 0.00, -0.00, -1.00, 634.5, 99.0)">r</text><g><clipPath id="clip-0"><path d="M 381.0 96.0 L 642.0 96.0 L 642.0 99.1 L 381.0 99.1 Z M 381.0 96.0 "></path></clipPath><g clip-path="url(#clip-0)"><path d="M 282.0 78.5 L 542.0 78.5 " fill="none" stroke="#000000" stroke-width="1.14" stroke-miterlimit="0.00" transform="matrix(1.00, 0.00, 0.00, -1.00, 100.0, 176.0)"></path></g></g><image xlink:href="4F2CCC8B74D215E3E945D0018C7B3177.png" width="166.00" height="166.00" transform="matrix(1.00, 0.00, -0.00, -1.00, 260.0, 467.0)"></image><image xlink:href="46A6D61C48C59027ADD5EEC1A765939F.png" width="269.00" height="166.00" transform="matrix(1.00, 0.00, -0.00, -1.00, 518.0, 467.0)"></image></g></svg>