<?xml version="1.0" encoding="UTF-8" standalone="no"?><svg xmlns="http://www.w3.org/2000/svg" xmlns:xlink="http://www.w3.org/1999/xlink" clip-rule="evenodd" stroke-miterlimit="4.00" viewBox="0 0 1024 768"><desc>SVG generated by Keynote</desc><defs></defs><g transform="matrix(1.00, 0.00, -0.00, -1.00, 0.0, 768.0)"><path d="M 0.0 768.0 L 1024.0 768.0 L 1024.0 0.0 L 0.0 0.0 Z M 0.0 768.0 " fill="#FEFFFF"></path><text xml:space="preserve" font-family="Helvetica-Light" font-size="67.0" fill="#000000" transform="matrix(1.00, 0.00, -0.00, -1.00, 335.0, 444.0)">O</text><text xml:space="preserve" font-family="Helvetica-Light" font-size="67.0" fill="#000000" transform="matrix(1.00, 0.00, -0.00, -1.00, 387.1, 444.0)">b</text><text xml:space="preserve" font-family="Helvetica-Light" font-size="67.0" fill="#000000" transform="matrix(1.00, 0.00, -0.00, -1.00, 428.1, 444.0)">r</text><text xml:space="preserve" font-family="Helvetica-Light" font-size="67.0" fill="#000000" transform="matrix(1.00, 0.00, -0.00, -1.00, 450.4, 444.0)">i</text><text xml:space="preserve" font-family="Helvetica-Light" font-size="67.0" fill="#000000" transform="matrix(1.00, 0.00, -0.00, -1.00, 465.2, 444.0)">g</text><text xml:space="preserve" font-family="Helvetica-Light" font-size="67.0" fill="#000000" transform="matrix(1.00, 0.00, -0.00, -1.00, 506.2, 444.0)">a</text><text xml:space="preserve" font-family="Helvetica-Light" font-size="67.0" fill="#000000" transform="matrix(1.00, 0.00, -0.00, -1.00, 543.4, 444.0)">d</text><text xml:space="preserve" font-family="Helvetica-Light" font-size="67.0" fill="#000000" transform="matrix(1.00, 0.00, -0.00, -1.00, 584.4, 444.0)">o</text><text xml:space="preserve" font-family="Helvetica-Light" font-size="67.0" fill="#000000" transform="matrix(1.00, 0.00, -0.00, -1.00, 621.6, 444.0)">!</text><text xml:space="preserve" font-family="Helvetica-Light" font-size="67.0" fill="#000000" transform="matrix(1.00, 0.00, -0.00, -1.00, 643.9, 444.0)">!</text><text xml:space="preserve" font-family="Helvetica-Light" font-size="67.0" fill="#000000" transform="matrix(1.00, 0.00, -0.00, -1.00, 666.2, 444.0)">!</text><text xml:space="preserve" font-family="Helvetica-Light" font-size="67.0" fill="#000000" transform="matrix(1.00, 0.00, -0.00, -1.00, 688.6, 444.0)"> </text><text xml:space="preserve" font-family="Helvetica-Light" font-size="67.0" fill="#000000" transform="matrix(1.00, 0.00, -0.00, -1.00, 707.2, 444.0)"> </text><text xml:space="preserve" font-family="Helvetica-Light" font-size="67.0" fill="#000000" transform="matrix(1.00, 0.00, -0.00, -1.00, 372.0, 322.0)">D</text><text xml:space="preserve" font-family="Helvetica-Light" font-size="67.0" fill="#000000" transform="matrix(1.00, 0.00, -0.00, -1.00, 420.4, 322.0)">ú</text><text xml:space="preserve" font-family="Helvetica-Light" font-size="67.0" fill="#000000" transform="matrix(1.00, 0.00, -0.00, -1.00, 457.6, 322.0)">v</text><text xml:space="preserve" font-family="Helvetica-Light" font-size="67.0" fill="#000000" transform="matrix(1.00, 0.00, -0.00, -1.00, 491.1, 322.0)">i</text><text xml:space="preserve" font-family="Helvetica-Light" font-size="67.0" fill="#000000" transform="matrix(1.00, 0.00, -0.00, -1.00, 506.0, 322.0)">d</text><text xml:space="preserve" font-family="Helvetica-Light" font-size="67.0" fill="#000000" transform="matrix(1.00, 0.00, -0.00, -1.00, 546.9, 322.0)">a</text><text xml:space="preserve" font-family="Helvetica-Light" font-size="67.0" fill="#000000" transform="matrix(1.00, 0.00, -0.00, -1.00, 584.2, 322.0)">s</text><text xml:space="preserve" font-family="Helvetica-Light" font-size="67.0" fill="#000000" transform="matrix(1.00, 0.00, -0.00, -1.00, 617.7, 322.0)">?</text></g></svg>